<svg id="Camada_1" data-name="Camada 1" xmlns="http://www.w3.org/2000/svg" viewBox="0 0 1113 387"><title>logo-amarelos-filmes</title><g id="_Grupo_" data-name="&lt;Grupo&gt;"><path id="_Caminho_" data-name="&lt;Caminho&gt;" d="M277.38,239.35S280,200.9,257.29,152C227.58,78.59,149.82,88.2,121.86,21.8c-3.49,18.35,14.86,55.91,14.86,55.91s-32.11-8.95-41.06-31.45c-4.81,16,16.6,40.19,16.6,40.19s-31.45,1.9-37.58-4.37C81,93.66,106.14,96.93,106.14,96.93S43,140.18,42.36,239.35C69.88,237.82,277.38,239.35,277.38,239.35Z" style="fill:#ffc225"/><path id="_Caminho_2" data-name="&lt;Caminho&gt;" d="M137.13,152.63a11.8,11.8,0,1,1-11.8-11.79A11.8,11.8,0,0,1,137.13,152.63Z"/><path id="_Caminho_3" data-name="&lt;Caminho&gt;" d="M133.77,152a4.48,4.48,0,1,1-4.48-4.48A4.47,4.47,0,0,1,133.77,152Z" style="fill:#fff"/><path id="_Caminho_4" data-name="&lt;Caminho&gt;" d="M208.44,152.63a11.8,11.8,0,1,1-11.79-11.79A11.79,11.79,0,0,1,208.44,152.63Z"/><path id="_Caminho_5" data-name="&lt;Caminho&gt;" d="M205.09,152a4.48,4.48,0,1,1-4.48-4.48A4.48,4.48,0,0,1,205.09,152Z" style="fill:#fff"/><path id="_Caminho_6" data-name="&lt;Caminho&gt;" d="M36.79,238.71l24.47-20.4,32.18,20.4,29-24,22.66,14.05,19.75-15.41L183.48,234l21.78-9.74,24.27,14.86,58.34-25.83s-6.8,155-120.1,151.82S36.79,238.71,36.79,238.71Z" style="fill:#fff"/><g id="_Grupo_2" data-name="&lt;Grupo&gt;"><polygon id="_Caminho_7" data-name="&lt;Caminho&gt;" points="230.34 236.66 230.73 273.55 230.74 273.99 230.32 274.12 210.09 280.31 210.29 279.65 224.77 298.22 224.87 298.35 224.79 298.49 209.52 323.5 224.4 298.25 224.41 298.51 209.63 280.17 209.26 279.7 209.84 279.51 229.97 273.01 229.57 273.57 228.59 236.7 230.34 236.66" style="fill:#ffc225"/><path id="_Caminho_composto_" data-name="&lt;Caminho composto&gt;" d="M230.34,236.67l.33,18.66q.18,9.33.3,18.66v.18l-.17.05-20.63,6.36-.52.16.16-.52.2-.65.16-.54.35.44,14.63,18.66.15.2-.13.21-15.29,25.18-.73-.44,14.94-25.21.59-1,.07,1.15,0,.27.08,1.13-.71-.89L209,279.88l-.27-.33.41-.13,20.73-6.64.7-.23-.43.6-.41.56-.41.58,0-.71q-.24-9.21-.4-18.44l-.35-18.44v0h1.76Zm0,0-1.75,0h0l.63,18.43q.32,9.22.58,18.44l-.44-.14.41-.56.27.37L209.35,280l.14-.47,15.2,18.77-.63.25,0-.26.67.16-14.83,25.28-.73-.44,15.43-25.11,0,.41-14.54-18.74.5-.09-.2.65L210,280l20.67-6.26-.17.23C230.38,261.55,230.4,249.11,230.34,236.67Z" style="fill:#ffc225"/></g><g id="_Grupo_3" data-name="&lt;Grupo&gt;"><path id="_Caminho_8" data-name="&lt;Caminho&gt;" d="M145.1,184.62s8.94-9.14,16-11.35,18.45,11.35,18.45,11.35-12.54,7.08-16.29,7.3S145.1,184.62,145.1,184.62Z" style="fill:#f29100"/></g></g><g id="_Grupo_4" data-name="&lt;Grupo&gt;"><path id="_Caminho_composto_2" data-name="&lt;Caminho composto&gt;" d="M393,243.66,390.23,251q-3.68,9.81-12.08,9.82t-12.06-5.16q-3.64-5.16-3.64-9.28a19.37,19.37,0,0,1,1.8-8.08l34.14-74.92h9.24q9.22,0,13.64,9.82l29.88,65.1a19.18,19.18,0,0,1,1.87,8.15q0,4.13-3.53,9.24t-12.09,5.13q-8.55,0-12.23-9.82l-2.75-7.36Zm20.93-23.1-6.21-16.89-6.21,16.89Z" style="fill:#ffc225"/><path id="_Caminho_composto_3" data-name="&lt;Caminho composto&gt;" d="M509.75,193.43l20.06-24.11q4.91-5.91,13.28-5.92h14.29v84.88q0,12.55-14.29,12.56T528.8,248.28V208.44l-19,22.37-19.06-22.23v39.7q0,12.55-14.29,12.56H462.11V163.4H476.4a16.48,16.48,0,0,1,13.14,5.92Z" style="fill:#ffc225"/><path id="_Caminho_composto_4" data-name="&lt;Caminho composto&gt;" d="M597,243.66,594.26,251q-3.69,9.81-12.09,9.82t-12-5.16q-3.64-5.16-3.65-9.28a19.23,19.23,0,0,1,1.81-8.08l34.13-74.92h9.24q9.24,0,13.64,9.82l29.88,65.1a19.19,19.19,0,0,1,1.88,8.15q0,4.13-3.54,9.24t-12.09,5.13q-8.55,0-12.23-9.82l-2.74-7.36Zm20.93-23.1-6.21-16.89-6.2,16.89Z" style="fill:#ffc225"/><path id="_Caminho_composto_5" data-name="&lt;Caminho composto&gt;" d="M726,219.41l13,17.75q5.26,6.28,5.05,11.37t-5.16,9.13a15.4,15.4,0,0,1-10.43,3.86q-5.49-.18-11.19-6.75l-22.59-30.89v24.4q0,12.55-14.29,12.56H666.14V163.4h46.62a25.22,25.22,0,0,1,19.92,9.2q8,9.21,7.94,19.74Q740.62,211.18,726,219.41ZM694.72,183v22.23H703q12.12,0,12.12-11.11T703,183Z" style="fill:#ffc225"/><path id="_Caminho_composto_6" data-name="&lt;Caminho composto&gt;" d="M752.6,260.84V163.4h60v11.48q0,11.48-11.12,11.47H781.18v14h28.58V211.9q0,11.55-11.11,11.55H781.18v14.43h31.47v11.48q0,11.47-11.12,11.48Z" style="fill:#ffc225"/><path id="_Caminho_composto_7" data-name="&lt;Caminho composto&gt;" d="M873.77,260.84H837.11q-14.29,0-14.29-12.56V163.4h14.29q14.29,0,14.29,12.56v61.92h31.32v11.48Q882.72,260.83,873.77,260.84Z" style="fill:#ffc225"/><path id="_Caminho_composto_8" data-name="&lt;Caminho composto&gt;" d="M995,211.18q0,22.59-14.65,36.56t-37.1,14q-22.44,0-36.95-14t-14.51-36.56q0-22.59,14.44-36.63t37.2-14q22.77,0,37.17,14T995,211.18Zm-34.21-18.11q-6.49-7.15-17.32-7.15T926.1,193.1q-6.57,7.18-6.57,18.12t6.57,18q6.55,7.08,17.35,7.08t17.33-7.15q6.53-7.14,6.53-18T960.81,193.07Z" style="fill:#ffc225"/><path id="_Caminho_composto_9" data-name="&lt;Caminho composto&gt;" d="M1043.05,261.12a83.74,83.74,0,0,1-27-4.4q-13.07-4.4-13.06-14.65t5.12-14.58q22.67,10.11,32.52,9.38t9.85-5.05q0-4.26-5.27-6.75a134.59,134.59,0,0,0-14.69-5.59q-9.42-3.1-11.8-5.41-11-7.29-10.61-21.62t9.53-23q9-8.52,23-8.88t35.58,9.81q-3.68,21.58-14.58,18.7-28.73-10.24-28-.65,0,3.83,5.16,6.6a106.15,106.15,0,0,0,14.54,6.06q9.39,3.28,11.91,5,10.4,8.22,10.4,23.06t-9.53,23.49Q1056.95,261.13,1043.05,261.12Z" style="fill:#ffc225"/></g><text transform="translate(606.12 349.63)" style="font-size:66.01175689697266px;fill:#ffc225;font-family:Humanist521BT-Light, Humanst521 Lt BT;letter-spacing:0.0999984628352276em">FILMES</text></svg>